# xmcd
#
# Track frame offsets:
#	150
#	16680
#	32087
#	54702
#	70366
#	87435
#	102373
#	121629
#	139623
#	153505
#	168058
#	189406
#	203970
#	224961
#	242943
#
# Disc length: 3543 seconds
#
# Revision: 1
# Processed by: cddbd v1.5.1PL0 Copyright (c) Steve Scherf et al.
# Submitted via: audiograbber 1.83.01
#
DISCID=d30dd50f
DTITLE=V - CB60320
DYEAR=1900
DGENRE=Karaoke Country
TTITLE0=Pat Green - Guy Like Me
TTITLE1=Rascal Flatts - Mayberry
TTITLE2=Emerson Drive - Last One Standing
TTITLE3=Billy Currington - I Got A Feelin'
TTITLE4=Vincent Rhonda - If Heartaches Had Wings
TTITLE5=Joe Diffie - Tougher Than Nails
TTITLE6=George Strait - Desperately
TTITLE7=Reba McEntire - Somebody
TTITLE8=Brooks and Dunn - That's What She Gets For Loving Me
TTITLE9=Montgomery Gentry - If You Ever Stop Loving Me
TTITLE10=Wynonna - Flies ON THe Butter
TTITLE11=Lee Ann Womack - Weong Girl, The
TTITLE12=Chris Cagle - I'd Be Lyin'
TTITLE13=Diamond Rio - We All Fall Down
TTITLE14=Kenny Chesney and Uncle Kracker - When The Sun Goes Down
EXTD=Chartbuster\n\n
EXTT0=
EXTT1=
EXTT2=
EXTT3=
EXTT4=
EXTT5=
EXTT6=
EXTT7=
EXTT8=
EXTT9=
EXTT10=
EXTT11=
EXTT12=
EXTT13=
EXTT14=
PLAYORDER=
